<svg xmlns="http://www.w3.org/2000/svg" width="52.625" height="52.915" viewBox="0 0 52.625 52.915" fill="none">
  <path d="M 24.543 0.078 C 25.889 -0.218 27.073 0.367 27.968 1.169 C 28.853 1.96 29.677 3.141 30.474 4.626 C 30.511 4.695 30.543 4.765 30.57 4.836 C 36.545 6.076 41.621 9.771 44.695 14.82 C 45.473 14.945 46.2 15.079 46.868 15.223 C 48.097 15.488 49.203 15.802 50.083 16.18 C 50.524 16.37 50.959 16.597 51.339 16.878 C 51.708 17.151 52.126 17.548 52.386 18.111 C 52.674 18.733 52.704 19.426 52.464 20.079 C 52.247 20.669 51.852 21.115 51.477 21.44 C 50.742 22.078 49.656 22.619 48.359 23.114 C 48.13 23.201 47.894 23.239 47.663 23.233 C 47.787 24.171 47.851 25.127 47.851 26.098 C 47.851 36.662 40.309 45.463 30.315 47.412 C 29.659 48.882 28.999 50.063 28.318 50.938 C 27.599 51.864 26.622 52.75 25.342 52.894 C 23.926 53.054 22.876 52.248 22.224 51.433 C 21.577 50.624 21.084 49.54 20.688 48.376 C 20.544 47.952 20.407 47.497 20.276 47.014 C 11.129 44.457 4.42 36.061 4.42 26.098 L 4.422 25.818 C 4.431 25.048 4.481 24.289 4.569 23.541 C 3.214 22.964 2.114 22.364 1.348 21.708 C 0.61 21.077 -0.265 19.982 0.076 18.549 C 0.374 17.301 1.447 16.6 2.194 16.22 C 3.048 15.786 4.132 15.444 5.321 15.163 C 6.027 14.997 6.805 14.845 7.644 14.707 C 10.528 10.035 15.133 6.539 20.574 5.102 C 20.932 3.992 21.357 2.984 21.875 2.171 C 22.438 1.287 23.29 0.354 24.543 0.078 Z M 24.34 47.74 C 24.601 48.413 24.848 48.862 25.054 49.128 C 25.149 49.04 25.278 48.904 25.438 48.698 C 25.62 48.464 25.817 48.171 26.028 47.813 C 25.46 47.81 24.897 47.786 24.34 47.74 Z M 25.96 17.237 C 24.719 17.232 23.483 17.241 22.264 17.262 C 22.025 20.416 21.915 23.844 21.936 27.282 C 21.976 33.571 22.457 39.649 23.308 43.945 C 24.23 44.089 25.174 44.165 26.136 44.165 C 36.113 44.165 44.202 36.076 44.202 26.098 C 44.202 23.254 43.544 20.563 42.373 18.169 C 37.884 17.583 31.943 17.258 25.96 17.237 Z M 18.596 17.37 C 15.407 17.501 12.443 17.729 9.956 18.054 C 8.749 20.477 8.069 23.208 8.069 26.098 C 8.069 33.699 12.763 40.203 19.411 42.871 C 18.69 38.408 18.322 32.832 18.287 27.305 C 18.266 23.961 18.366 20.564 18.596 17.37 Z M 5.663 18.838 C 5.076 18.992 4.601 19.148 4.231 19.299 C 4.507 19.471 4.867 19.666 5.323 19.881 C 5.428 19.53 5.541 19.182 5.663 18.838 Z M 46.633 18.912 C 46.732 19.194 46.826 19.48 46.913 19.768 C 46.96 19.745 47.009 19.724 47.058 19.705 C 47.438 19.56 47.756 19.424 48.022 19.3 C 47.635 19.171 47.172 19.04 46.633 18.912 Z M 26.136 8.032 C 25.242 8.032 24.364 8.097 23.506 8.222 C 23.148 9.777 22.85 11.601 22.613 13.607 C 23.729 13.59 24.853 13.584 25.974 13.588 C 30.744 13.605 35.575 13.812 39.733 14.205 C 36.422 10.422 31.558 8.032 26.136 8.032 Z M 19.569 9.263 C 16.887 10.31 14.517 11.979 12.635 14.094 C 14.606 13.917 16.731 13.788 18.93 13.705 C 19.105 12.128 19.318 10.636 19.569 9.263 Z M 25.292 3.699 C 25.219 3.767 25.103 3.896 24.953 4.131 C 24.897 4.22 24.839 4.318 24.781 4.424 C 25.184 4.399 25.59 4.386 25.998 4.383 C 25.827 4.174 25.673 4.011 25.535 3.888 C 25.43 3.793 25.349 3.735 25.292 3.699 Z" fill="currentColor" fill-rule="evenodd"></path>
</svg>