<svg width="32" height="32" viewBox="0 0 32 32" fill="none" xmlns="http://www.w3.org/2000/svg">
<path fill-rule="evenodd" clip-rule="evenodd" d="M16.2841 7.11572C19.448 7.11572 22.2514 8.65914 23.9825 11.0342C24.4584 10.909 24.8986 10.8228 25.2933 10.7851C25.8764 10.7294 26.4888 10.7636 26.988 11.0726C27.259 11.2404 27.5101 11.4981 27.6825 11.8645C27.8513 12.2232 27.9076 12.6069 27.9008 12.9696C27.8878 13.6609 27.6424 14.4422 27.2497 15.299C27.118 15.5862 26.9648 15.8917 26.7899 16.2165C26.8797 16.3933 26.9623 16.5639 27.038 16.7284C27.4309 17.5825 27.6774 18.3607 27.692 19.0484C27.6997 19.4095 27.6445 19.7933 27.475 20.1523C27.3016 20.5194 27.0489 20.7752 26.7775 20.9399C26.2788 21.2427 25.6682 21.2694 25.088 21.2079C24.9534 21.1936 24.8135 21.1733 24.6686 21.1481C23.0607 24.1295 19.909 26.1557 16.2841 26.1557C12.3166 26.1557 8.91606 23.7287 7.48594 20.2784C6.8571 20.4961 6.29849 20.6476 5.83735 20.7057C5.57754 20.7385 5.31835 20.7461 5.07735 20.706C4.84571 20.6675 4.55619 20.5727 4.30157 20.3221C4.01249 20.0376 3.86364 19.6476 3.83469 19.256C3.80885 18.9062 3.87767 18.572 3.9711 18.2796C4.15915 17.6912 4.54334 16.984 5.09876 16.1499C5.13306 16.0984 5.16806 16.0462 5.20391 15.9934C5.12091 15.8739 5.04172 15.7577 4.96626 15.6448C4.41054 14.8129 4.02596 14.1091 3.83673 13.5254C3.74286 13.2359 3.67239 12.9032 3.69704 12.5543C3.72476 12.162 3.87442 11.7696 4.16766 11.4859C4.42422 11.2377 4.71458 11.1479 4.94407 11.1131C5.18366 11.0767 5.44122 11.0878 5.69954 11.1237C6.32681 11.2108 7.13653 11.4719 8.05844 11.8401C9.7095 9.01422 12.7751 7.11574 16.2841 7.11572ZM14.7316 16.9843C13.0734 17.8022 11.4471 18.6034 10.0094 19.2499C9.65695 19.4084 9.31231 19.5588 8.9786 19.6993C10.1764 22.5521 12.9962 24.5557 16.2841 24.5557C19.1595 24.5557 21.6768 23.0232 23.0644 20.7306C22.2719 20.4721 21.4038 20.1294 20.4978 19.7382C18.7143 18.968 16.7224 17.9824 14.7684 17.0029C14.7561 16.9967 14.7439 16.9905 14.7316 16.9843ZM25.832 17.8423C25.7885 17.9111 25.7444 17.9807 25.6994 18.0509C25.6279 18.5305 25.5207 18.9985 25.3805 19.452C25.8862 19.5051 26.1587 19.4418 26.2716 19.3807C26.273 19.3631 26.2741 19.3389 26.2734 19.3074C26.268 19.0502 26.1626 18.5817 25.832 17.8423ZM23.3659 13.0871C22.7323 13.3036 22.0345 13.5756 21.2869 13.8917C19.8683 14.4914 18.3092 15.2317 16.7281 16.0032C18.2464 16.7561 19.7402 17.4762 21.1039 18.0651C22.1092 18.4992 23.0243 18.8532 23.8139 19.0976C24.0671 18.3227 24.2041 17.4952 24.2041 16.6357C24.2041 15.3598 23.9019 14.1546 23.3659 13.0871ZM6.22641 17.3815C5.75436 18.0918 5.47954 18.6104 5.34391 18.9682C5.39821 18.9655 5.45914 18.9605 5.52688 18.952C5.90397 18.9044 6.38761 18.7735 6.96157 18.5742C6.9382 18.4612 6.91683 18.3475 6.89751 18.2331C6.65917 17.9365 6.43568 17.6527 6.22641 17.3815ZM8.78501 14.0815C8.51214 14.8829 8.36407 15.742 8.36407 16.6357C8.36407 17.0945 8.40324 17.5442 8.47813 17.9817C8.76885 17.8584 9.07271 17.7254 9.38844 17.5834C10.4249 17.1173 11.5616 16.5693 12.7461 15.9887C11.5033 15.3674 10.3101 14.7794 9.22688 14.2818C9.07689 14.2129 8.92949 14.1463 8.78501 14.0815ZM16.2841 8.71572C13.4357 8.71574 10.9388 10.2196 9.54329 12.4765C9.64678 12.5233 9.75111 12.5708 9.8561 12.619C11.3392 13.3003 13.0239 14.1477 14.7372 15.0081C14.8061 14.9741 14.8751 14.9402 14.9441 14.9062C16.903 13.9417 18.9002 12.9713 20.6886 12.2153C21.2634 11.9723 21.823 11.7487 22.358 11.5534C20.9051 9.81895 18.7236 8.71572 16.2841 8.71572ZM5.21923 12.859C5.36051 13.2164 5.63689 13.729 6.10235 14.4257C6.1394 14.4812 6.17756 14.5376 6.21673 14.5949C6.5018 14.221 6.81519 13.8228 7.15782 13.3992C6.42976 13.1211 5.82619 12.9384 5.37548 12.8759C5.31862 12.868 5.26655 12.8627 5.21923 12.859ZM26.4784 12.629C26.368 12.5636 26.0919 12.4927 25.5708 12.5424C25.3738 12.5613 25.1594 12.5952 24.9288 12.6431C25.1029 13.0194 25.2532 13.4091 25.3777 13.8101C25.5489 14.0741 25.7098 14.3292 25.8609 14.5753C25.9084 14.4782 25.9534 14.3842 25.9953 14.2928C26.3627 13.4912 26.4771 12.988 26.4822 12.7159C26.4829 12.6764 26.4805 12.6481 26.4784 12.629Z" fill="#D9D9D9"></path>
</svg>