<svg width="32" height="32" viewBox="0 0 32 32" fill="none" xmlns="http://www.w3.org/2000/svg">
<path fill-rule="evenodd" clip-rule="evenodd" d="M15.2243 4.51372C15.8142 4.38396 16.3335 4.64043 16.7261 4.99185C17.1139 5.33891 17.4753 5.85685 17.8249 6.50778C17.8411 6.53795 17.8548 6.56883 17.8668 6.59997C20.4867 7.14359 22.7122 8.76383 24.0602 10.9773C24.4011 11.0322 24.7199 11.091 25.0127 11.1542C25.5518 11.2706 26.0368 11.4079 26.4225 11.5739C26.6157 11.657 26.8065 11.7568 26.973 11.8798C27.1349 11.9994 27.3184 12.1738 27.4324 12.4203C27.5586 12.6932 27.5719 12.997 27.4666 13.2833C27.3713 13.5422 27.1979 13.7378 27.0338 13.8803C26.7116 14.16 26.2354 14.397 25.6666 14.614C25.5662 14.6523 25.4628 14.6688 25.3616 14.6662C25.4158 15.0773 25.444 15.4967 25.444 15.9226C25.4439 20.5542 22.1368 24.4133 17.7552 25.2676C17.4674 25.9122 17.1778 26.4303 16.8796 26.8139C16.564 27.2199 16.1356 27.6083 15.5744 27.6715C14.9536 27.7414 14.4935 27.3884 14.2075 27.0311C13.9237 26.6763 13.7074 26.2007 13.5341 25.6906C13.4709 25.5045 13.4107 25.3049 13.3533 25.0933C9.34283 23.972 6.40101 20.2909 6.40098 15.9226L6.40176 15.7995C6.40604 15.4623 6.42798 15.1293 6.46645 14.8014C5.87223 14.5482 5.38978 14.2851 5.05395 13.9978C4.73064 13.7211 4.34663 13.2409 4.49645 12.6123C4.62687 12.0654 5.09729 11.7581 5.4252 11.5912C5.79934 11.4009 6.27475 11.2509 6.79629 11.1281C7.1056 11.0553 7.44666 10.9886 7.81458 10.9278C9.07908 8.87956 11.0982 7.34666 13.484 6.71638C13.6407 6.22995 13.8274 5.78781 14.0544 5.43122C14.301 5.04392 14.6747 4.63463 15.2243 4.51372ZM15.1352 25.4118C15.2498 25.7065 15.3578 25.9035 15.4482 26.0201C15.4899 25.9815 15.5463 25.9221 15.6165 25.8318C15.6963 25.7291 15.7828 25.6008 15.8754 25.4437C15.6263 25.4425 15.3794 25.4318 15.1352 25.4118ZM15.8457 12.0372C15.3013 12.0352 14.7593 12.0389 14.2249 12.0484C14.1203 13.4313 14.0718 14.934 14.0813 16.4417C14.0987 19.1991 14.3094 21.8638 14.6829 23.7475C15.0868 23.811 15.5008 23.844 15.9225 23.844C20.2974 23.844 23.8439 20.2975 23.844 15.9226C23.8439 14.6754 23.5553 13.4955 23.0418 12.4459C21.0738 12.1891 18.4688 12.0467 15.8457 12.0372ZM12.6168 12.0954C11.2186 12.1531 9.91901 12.2531 8.82817 12.3954C8.29901 13.4577 8.00099 14.6553 8.00098 15.9226C8.00101 19.2553 10.0593 22.107 12.974 23.2767C12.6577 21.3198 12.4966 18.875 12.4813 16.4518C12.472 14.9853 12.5158 13.4961 12.6168 12.0954ZM6.94614 12.7393C6.6888 12.8069 6.48022 12.8753 6.31817 12.9415C6.4394 13.0168 6.59688 13.1022 6.79708 13.1967C6.84304 13.0426 6.89268 12.8901 6.94614 12.7393ZM24.9099 12.7715C24.9533 12.8955 24.9943 13.0206 25.0327 13.1468C25.0533 13.1369 25.0745 13.1277 25.0963 13.1193C25.2626 13.0559 25.4022 12.9961 25.519 12.942C25.349 12.8852 25.146 12.8279 24.9099 12.7715ZM15.9225 8.00107C15.5309 8.00107 15.1459 8.0296 14.7694 8.0845C14.6127 8.76617 14.4819 9.56598 14.3782 10.4458C14.8675 10.4383 15.36 10.4355 15.8516 10.4373C17.943 10.4449 20.0612 10.5354 21.8846 10.7076C20.4326 9.04898 18.3001 8.00109 15.9225 8.00107ZM13.0432 8.54091C11.8672 8.99996 10.8281 9.73203 10.0032 10.659C10.8672 10.5815 11.7988 10.525 12.763 10.4884C12.84 9.7973 12.9332 9.14275 13.0432 8.54091ZM15.5524 6.10122C15.5206 6.13124 15.4697 6.18755 15.4041 6.2906C15.3792 6.32971 15.354 6.37262 15.3286 6.41935C15.5052 6.40848 15.683 6.40249 15.8621 6.40138C15.7873 6.30974 15.7196 6.23819 15.6591 6.18403C15.6129 6.14271 15.5775 6.11713 15.5524 6.10122Z" fill="white"></path>
</svg>