<svg width="32" height="32" viewBox="0 0 32 32" fill="none" xmlns="http://www.w3.org/2000/svg">
<path d="M16.0005 2.47998C16.442 2.48023 16.8002 2.8382 16.8003 3.27979V6.79541C21.6834 7.20194 25.5199 11.2917 25.52 16.2798C25.52 18.7611 24.5694 21.0198 23.0142 22.7144C23.4623 22.8732 23.9261 23.0309 24.4077 23.187C24.7956 23.3128 25.0657 23.7961 25.0112 24.2661C24.9565 24.7363 24.5975 25.0159 24.2095 24.8901C23.2896 24.5919 22.4258 24.2875 21.6079 23.9712C20.237 24.9724 18.5894 25.6142 16.8003 25.7632V28.7202C16.8002 29.1618 16.442 29.5198 16.0005 29.52C15.5587 29.52 15.1998 29.1619 15.1997 28.7202V25.7632C13.4254 25.6154 11.7904 24.9827 10.4263 23.9956C9.62772 24.3029 8.78563 24.5999 7.89014 24.8901C7.50214 25.0158 7.14307 24.7362 7.08838 24.2661C7.03389 23.7961 7.304 23.3128 7.69189 23.187C8.14666 23.0396 8.58543 22.8905 9.01025 22.7407C7.44055 21.0433 6.47998 18.7741 6.47998 16.2798C6.48009 11.2917 10.3166 7.20193 15.1997 6.79541V3.27979C15.1998 2.83805 15.5587 2.47998 16.0005 2.47998ZM15.1997 21.6802C14.2707 22.2543 13.2893 22.7683 12.23 23.2456C13.1292 23.7333 14.1331 24.0516 15.1997 24.1587V21.6802ZM16.8003 24.1587C17.8844 24.0499 18.9035 23.7225 19.814 23.2212C18.7378 22.7337 17.7428 22.2059 16.8003 21.6167V24.1587ZM8.604 13.4458C8.26653 14.3259 8.07962 15.2809 8.07959 16.2798C8.07959 18.5931 9.07223 20.6745 10.6538 22.1226C12.1624 21.5174 13.4821 20.8691 14.6909 20.1226C12.577 18.4331 10.6819 16.3026 8.604 13.4458ZM23.4302 13.5347C21.3775 16.347 19.5008 18.4516 17.4087 20.1235C18.5983 20.8583 19.8958 21.4973 21.3745 22.0942C22.9389 20.6474 23.9204 18.5787 23.9204 16.2798C23.9204 15.3146 23.7463 14.39 23.4302 13.5347ZM16.8003 18.6333C18.7981 17.0264 20.62 14.9606 22.7036 12.064C21.4356 10.0519 19.2885 8.64958 16.8003 8.3999V18.6333ZM15.1997 8.3999C12.7417 8.64655 10.616 10.0178 9.34229 11.9907C11.4131 14.8775 13.224 16.9433 15.1997 18.5522V8.3999Z" fill="white"></path>
</svg>