<svg width="28" height="28" viewBox="0 0 28 28" fill="none" xmlns="http://www.w3.org/2000/svg">
<path d="M20.7969 15.7529L21.3584 17.9473C21.4683 18.3764 21.7646 18.7274 22.1562 18.918L24.2119 19.918L21.9668 20.4551C21.5451 20.5559 21.1804 20.8319 20.9766 21.2227L19.9219 23.2461L19.9209 23.2471C19.9198 23.2474 19.9181 23.2487 19.916 23.249C19.9112 23.2498 19.9051 23.2507 19.8984 23.25C19.8929 23.2494 19.8884 23.2473 19.8848 23.2461L19.3242 21.0527L19.2744 20.8955C19.1389 20.538 18.8691 20.2478 18.5264 20.0811L16.4688 19.0801L18.7158 18.5449C19.1377 18.4441 19.5022 18.1673 19.7061 17.7764L20.7607 15.7529V15.751C20.7619 15.7506 20.7641 15.7504 20.7666 15.75C20.7714 15.7492 20.7775 15.7493 20.7842 15.75C20.7892 15.7505 20.7934 15.7518 20.7969 15.7529ZM10.1445 4.75195L11.8887 9.30469C12.0469 9.71739 12.3799 10.0325 12.7891 10.1787L17.4648 11.8506L12.7891 13.5234C12.3799 13.6697 12.0469 13.9847 11.8887 14.3975L10.1445 18.9492V18.9502C10.1401 18.9514 10.1338 18.9521 10.127 18.9521C10.1204 18.9521 10.1146 18.9513 10.1104 18.9502L10.1084 18.9492L8.36621 14.3975L8.29883 14.248C8.12368 13.9089 7.82394 13.6515 7.46582 13.5234L2.78809 11.8506L7.46582 10.1787C7.87486 10.0324 8.20806 9.71735 8.36621 9.30469L10.1084 4.75195H10.1104C10.1146 4.75079 10.1204 4.75003 10.127 4.75C10.1338 4.75 10.1401 4.75074 10.1445 4.75195Z" stroke="#D9D9D9" stroke-width="1.5"></path>
</svg>